<svg version="1.1" viewBox="0.0 0.0 600.0 371.0" fill="none" stroke="none" stroke-linecap="square" stroke-miterlimit="10" width="600" height="371" xmlns:xlink="http://www.w3.org/1999/xlink" xmlns="http://www.w3.org/2000/svg"><path fill="#ffffff" d="M0 0L600.0 0L600.0 371.0L0 371.0L0 0Z" fill-rule="nonzero"/><path stroke="#333333" stroke-width="1.0" stroke-linecap="butt" d="M69.5 332.5L581.5 332.5" fill-rule="nonzero"/><path stroke="#cccccc" stroke-width="1.0" stroke-linecap="butt" d="M69.5 255.5L581.5 255.5" fill-rule="nonzero"/><path stroke="#cccccc" stroke-width="1.0" stroke-linecap="butt" d="M69.5 179.5L581.5 179.5" fill-rule="nonzero"/><path stroke="#cccccc" stroke-width="1.0" stroke-linecap="butt" d="M69.5 102.5L581.5 102.5" fill-rule="nonzero"/><path stroke="#cccccc" stroke-width="1.0" stroke-linecap="butt" d="M69.5 25.5L581.5 25.5" fill-rule="nonzero"/><clipPath id="id_0"><path d="M69.55 25.55L581.45 25.55L581.45 332.45L69.55 332.45L69.55 25.55Z" clip-rule="nonzero"/></clipPath><path stroke="#000000" stroke-width="2.0" stroke-linecap="butt" stroke-opacity="0.0" clip-path="url(#id_0)" d="M165.0 332.0L103.0 332.0L103.0 181.0C103.0 179.89543 103.89543 179.0 105.0 179.0L163.0 179.0C164.10457 179.0 165.0 179.89543 165.0 181.0Z" fill-rule="nonzero"/><path fill="#4285f4" clip-path="url(#id_0)" d="M165.0 332.0L103.0 332.0L103.0 181.0C103.0 179.89543 103.89543 179.0 105.0 179.0L163.0 179.0C164.10457 179.0 165.0 179.89543 165.0 181.0Z" fill-rule="nonzero"/><path stroke="#000000" stroke-width="2.0" stroke-linecap="butt" stroke-opacity="0.0" clip-path="url(#id_0)" d="M261.0 332.0L199.0 332.0L199.0 104.0C199.0 102.89543 199.89543 102.0 201.0 102.0L259.0 102.0C260.10458 102.0 261.0 102.89543 261.0 104.0Z" fill-rule="nonzero"/><path fill="#4285f4" clip-path="url(#id_0)" d="M261.0 332.0L199.0 332.0L199.0 104.0C199.0 102.89543 199.89543 102.0 201.0 102.0L259.0 102.0C260.10458 102.0 261.0 102.89543 261.0 104.0Z" fill-rule="nonzero"/><path stroke="#000000" stroke-width="2.0" stroke-linecap="butt" stroke-opacity="0.0" clip-path="url(#id_0)" d="M357.0 332.0L295.0 332.0L295.0 219.0C295.0 217.89543 295.89542 217.0 297.0 217.0L355.0 217.0C356.10458 217.0 357.0 217.89543 357.0 219.0Z" fill-rule="nonzero"/><path fill="#4285f4" clip-path="url(#id_0)" d="M357.0 332.0L295.0 332.0L295.0 219.0C295.0 217.89543 295.89542 217.0 297.0 217.0L355.0 217.0C356.10458 217.0 357.0 217.89543 357.0 219.0Z" fill-rule="nonzero"/><path stroke="#000000" stroke-width="2.0" stroke-linecap="butt" stroke-opacity="0.0" clip-path="url(#id_0)" d="M452.0 332.0L390.0 332.0L390.0 28.0C390.0 26.89543 390.89542 26.0 392.0 26.0L450.0 26.0C451.10458 26.0 452.0 26.89543 452.0 28.0Z" fill-rule="nonzero"/><path fill="#4285f4" clip-path="url(#id_0)" d="M452.0 332.0L390.0 332.0L390.0 28.0C390.0 26.89543 390.89542 26.0 392.0 26.0L450.0 26.0C451.10458 26.0 452.0 26.89543 452.0 28.0Z" fill-rule="nonzero"/><path stroke="#000000" stroke-width="2.0" stroke-linecap="butt" stroke-opacity="0.0" clip-path="url(#id_0)" d="M548.0 332.0L486.0 332.0L486.0 143.0C486.0 141.89543 486.89542 141.0 488.0 141.0L546.0 141.0C547.10455 141.0 548.0 141.89543 548.0 143.0Z" fill-rule="nonzero"/><path fill="#4285f4" clip-path="url(#id_0)" d="M548.0 332.0L486.0 332.0L486.0 143.0C486.0 141.89543 486.89542 141.0 488.0 141.0L546.0 141.0C547.10455 141.0 548.0 141.89543 548.0 143.0Z" fill-rule="nonzero"/><path fill="#000000" d="M57.05 332.21564Q57.05 330.6844 57.3625 329.7625Q57.675 328.825 58.284374 328.325Q58.909374 327.825 59.846874 327.825Q60.534374 327.825 61.05 328.10626Q61.58125 328.3875 61.925 328.91876Q62.26875 329.4344 62.45625 330.1844Q62.64375 330.9344 62.64375 332.21564Q62.64375 333.73126 62.33125 334.65314Q62.034374 335.575 61.409374 336.09064Q60.8 336.59064 59.846874 336.59064Q58.6125 336.59064 57.89375 335.7Q57.05 334.6375 57.05 332.21564ZM58.128124 332.21564Q58.128124 334.325 58.628124 335.02814Q59.128124 335.73126 59.846874 335.73126Q60.58125 335.73126 61.065624 335.02814Q61.565624 334.325 61.565624 332.21564Q61.565624 330.09064 61.065624 329.40314Q60.58125 328.7 59.83125 328.7Q59.1125 328.7 58.675 329.3094Q58.128124 330.09064 58.128124 332.21564Z" fill-rule="nonzero"/><path fill="#000000" d="M26.05 257.475L27.159374 257.38126Q27.284374 258.19376 27.721874 258.6Q28.175 259.00626 28.815624 259.00626Q29.565624 259.00626 30.096874 258.42813Q30.628124 257.85 30.628124 256.9125Q30.628124 256.00626 30.1125 255.49063Q29.6125 254.95938 28.784374 254.95938Q28.284374 254.95938 27.8625 255.19376Q27.45625 255.42813 27.221874 255.7875L26.2375 255.6625L27.065624 251.25626L31.346874 251.25626L31.346874 252.25626L27.909374 252.25626L27.45625 254.56876Q28.221874 254.02188 29.065624 254.02188Q30.190624 254.02188 30.95625 254.80313Q31.7375 255.58438 31.7375 256.81876Q31.7375 257.975 31.065624 258.83438Q30.2375 259.86563 28.815624 259.86563Q27.64375 259.86563 26.89375 259.20938Q26.159374 258.55313 26.05 257.475ZM33.05 255.49063Q33.05 253.95938 33.3625 253.0375Q33.675 252.1 34.284374 251.6Q34.909374 251.1 35.846874 251.1Q36.534374 251.1 37.05 251.38126Q37.58125 251.6625 37.925 252.19376Q38.26875 252.70938 38.45625 253.45938Q38.64375 254.20938 38.64375 255.49063Q38.64375 257.00626 38.33125 257.92813Q38.034374 258.85 37.409374 259.36563Q36.8 259.86563 35.846874 259.86563Q34.6125 259.86563 33.89375 258.975Q33.05 257.9125 33.05 255.49063ZM34.128124 255.49063Q34.128124 257.6 34.628124 258.30313Q35.128124 259.00626 35.846874 259.00626Q36.58125 259.00626 37.065624 258.30313Q37.565624 257.6 37.565624 255.49063Q37.565624 253.36563 37.065624 252.67813Q36.58125 251.975 35.83125 251.975Q35.1125 251.975 34.675 252.58438Q34.128124 253.36563 34.128124 255.49063ZM40.6125 259.725L40.6125 258.52188L41.815624 258.52188L41.815624 259.725Q41.815624 260.38126 41.58125 260.7875Q41.346874 261.20938 40.846874 261.42813L40.55 260.975Q40.878124 260.83438 41.034374 260.5375Q41.190624 260.25626 41.221874 259.725L40.6125 259.725ZM43.05 255.49063Q43.05 253.95938 43.3625 253.0375Q43.675 252.1 44.284374 251.6Q44.909374 251.1 45.846874 251.1Q46.534374 251.1 47.05 251.38126Q47.58125 251.6625 47.925 252.19376Q48.26875 252.70938 48.45625 253.45938Q48.64375 254.20938 48.64375 255.49063Q48.64375 257.00626 48.33125 257.92813Q48.034374 258.85 47.409374 259.36563Q46.8 259.86563 45.846874 259.86563Q44.6125 259.86563 43.89375 258.975Q43.05 257.9125 43.05 255.49063ZM44.128124 255.49063Q44.128124 257.6 44.628124 258.30313Q45.128124 259.00626 45.846874 259.00626Q46.58125 259.00626 47.065624 258.30313Q47.565624 257.6 47.565624 255.49063Q47.565624 253.36563 47.065624 252.67813Q46.58125 251.975 45.83125 251.975Q45.1125 251.975 44.675 252.58438Q44.128124 253.36563 44.128124 255.49063ZM50.05 255.49063Q50.05 253.95938 50.3625 253.0375Q50.675 252.1 51.284374 251.6Q51.909374 251.1 52.846874 251.1Q53.534374 251.1 54.05 251.38126Q54.58125 251.6625 54.925 252.19376Q55.26875 252.70938 55.45625 253.45938Q55.64375 254.20938 55.64375 255.49063Q55.64375 257.00626 55.33125 257.92813Q55.034374 258.85 54.409374 259.36563Q53.8 259.86563 52.846874 259.86563Q51.6125 259.86563 50.89375 258.975Q50.05 257.9125 50.05 255.49063ZM51.128124 255.49063Q51.128124 257.6 51.628124 258.30313Q52.128124 259.00626 52.846874 259.00626Q53.58125 259.00626 54.065624 258.30313Q54.565624 257.6 54.565624 255.49063Q54.565624 253.36563 54.065624 252.67813Q53.58125 251.975 52.83125 251.975Q52.1125 251.975 51.675 252.58438Q51.128124 253.36563 51.128124 255.49063ZM57.05 255.49063Q57.05 253.95938 57.3625 253.0375Q57.675 252.1 58.284374 251.6Q58.909374 251.1 59.846874 251.1Q60.534374 251.1 61.05 251.38126Q61.58125 251.6625 61.925 252.19376Q62.26875 252.70938 62.45625 253.45938Q62.64375 254.20938 62.64375 255.49063Q62.64375 257.00626 62.33125 257.92813Q62.034374 258.85 61.409374 259.36563Q60.8 259.86563 59.846874 259.86563Q58.6125 259.86563 57.89375 258.975Q57.05 257.9125 57.05 255.49063ZM58.128124 255.49063Q58.128124 257.6 58.628124 258.30313Q59.128124 259.00626 59.846874 259.00626Q60.58125 259.00626 61.065624 258.30313Q61.565624 257.6 61.565624 255.49063Q61.565624 253.36563 61.065624 252.67813Q60.58125 251.975 59.83125 251.975Q59.1125 251.975 58.675 252.58438Q58.128124 253.36563 58.128124 255.49063Z" fill-rule="nonzero"/><path fill="#000000" d="M23.01875 183.0L21.971874 183.0L21.971874 176.28125Q21.58125 176.64062 20.95625 177.01562Q20.346874 177.375 19.8625 177.54688L19.8625 176.53125Q20.7375 176.10938 21.39375 175.53125Q22.065624 174.9375 22.346874 174.375L23.01875 174.375L23.01875 183.0ZM26.05 178.76562Q26.05 177.23438 26.3625 176.3125Q26.675 175.375 27.284374 174.875Q27.909374 174.375 28.846874 174.375Q29.534374 174.375 30.05 174.65625Q30.58125 174.9375 30.925 175.46875Q31.26875 175.98438 31.45625 176.73438Q31.64375 177.48438 31.64375 178.76562Q31.64375 180.28125 31.33125 181.20312Q31.034374 182.125 30.409374 182.64062Q29.8 183.14062 28.846874 183.14062Q27.6125 183.14062 26.89375 182.25Q26.05 181.1875 26.05 178.76562ZM27.128124 178.76562Q27.128124 180.875 27.628124 181.57812Q28.128124 182.28125 28.846874 182.28125Q29.58125 182.28125 30.065624 181.57812Q30.565624 180.875 30.565624 178.76562Q30.565624 176.64062 30.065624 175.95312Q29.58125 175.25 28.83125 175.25Q28.1125 175.25 27.675 175.85938Q27.128124 176.64062 27.128124 178.76562ZM33.05 178.76562Q33.05 177.23438 33.3625 176.3125Q33.675 175.375 34.284374 174.875Q34.909374 174.375 35.846874 174.375Q36.534374 174.375 37.05 174.65625Q37.58125 174.9375 37.925 175.46875Q38.26875 175.98438 38.45625 176.73438Q38.64375 177.48438 38.64375 178.76562Q38.64375 180.28125 38.33125 181.20312Q38.034374 182.125 37.409374 182.64062Q36.8 183.14062 35.846874 183.14062Q34.6125 183.14062 33.89375 182.25Q33.05 181.1875 33.05 178.76562ZM34.128124 178.76562Q34.128124 180.875 34.628124 181.57812Q35.128124 182.28125 35.846874 182.28125Q36.58125 182.28125 37.065624 181.57812Q37.565624 180.875 37.565624 178.76562Q37.565624 176.64062 37.065624 175.95312Q36.58125 175.25 35.83125 175.25Q35.1125 175.25 34.675 175.85938Q34.128124 176.64062 34.128124 178.76562ZM40.6125 183.0L40.6125 181.79688L41.815624 181.79688L41.815624 183.0Q41.815624 183.65625 41.58125 184.0625Q41.346874 184.48438 40.846874 184.70312L40.55 184.25Q40.878124 184.10938 41.034374 183.8125Q41.190624 183.53125 41.221874 183.0L40.6125 183.0ZM43.05 178.76562Q43.05 177.23438 43.3625 176.3125Q43.675 175.375 44.284374 174.875Q44.909374 174.375 45.846874 174.375Q46.534374 174.375 47.05 174.65625Q47.58125 174.9375 47.925 175.46875Q48.26875 175.98438 48.45625 176.73438Q48.64375 177.48438 48.64375 178.76562Q48.64375 180.28125 48.33125 181.20312Q48.034374 182.125 47.409374 182.64062Q46.8 183.14062 45.846874 183.14062Q44.6125 183.14062 43.89375 182.25Q43.05 181.1875 43.05 178.76562ZM44.128124 178.76562Q44.128124 180.875 44.628124 181.57812Q45.128124 182.28125 45.846874 182.28125Q46.58125 182.28125 47.065624 181.57812Q47.565624 180.875 47.565624 178.76562Q47.565624 176.64062 47.065624 175.95312Q46.58125 175.25 45.83125 175.25Q45.1125 175.25 44.675 175.85938Q44.128124 176.64062 44.128124 178.76562ZM50.05 178.76562Q50.05 177.23438 50.3625 176.3125Q50.675 175.375 51.284374 174.875Q51.909374 174.375 52.846874 174.375Q53.534374 174.375 54.05 174.65625Q54.58125 174.9375 54.925 175.46875Q55.26875 175.98438 55.45625 176.73438Q55.64375 177.48438 55.64375 178.76562Q55.64375 180.28125 55.33125 181.20312Q55.034374 182.125 54.409374 182.64062Q53.8 183.14062 52.846874 183.14062Q51.6125 183.14062 50.89375 182.25Q50.05 181.1875 50.05 178.76562ZM51.128124 178.76562Q51.128124 180.875 51.628124 181.57812Q52.128124 182.28125 52.846874 182.28125Q53.58125 182.28125 54.065624 181.57812Q54.565624 180.875 54.565624 178.76562Q54.565624 176.64062 54.065624 175.95312Q53.58125 175.25 52.83125 175.25Q52.1125 175.25 51.675 175.85938Q51.128124 176.64062 51.128124 178.76562ZM57.05 178.76562Q57.05 177.23438 57.3625 176.3125Q57.675 175.375 58.284374 174.875Q58.909374 174.375 59.846874 174.375Q60.534374 174.375 61.05 174.65625Q61.58125 174.9375 61.925 175.46875Q62.26875 175.98438 62.45625 176.73438Q62.64375 177.48438 62.64375 178.76562Q62.64375 180.28125 62.33125 181.20312Q62.034374 182.125 61.409374 182.64062Q60.8 183.14062 59.846874 183.14062Q58.6125 183.14062 57.89375 182.25Q57.05 181.1875 57.05 178.76562ZM58.128124 178.76562Q58.128124 180.875 58.628124 181.57812Q59.128124 182.28125 59.846874 182.28125Q60.58125 182.28125 61.065624 181.57812Q61.565624 180.875 61.565624 178.76562Q61.565624 176.64062 61.065624 175.95312Q60.58125 175.25 59.83125 175.25Q59.1125 175.25 58.675 175.85938Q58.128124 176.64062 58.128124 178.76562Z" fill-rule="nonzero"/><path fill="#000000" d="M23.01875 106.275L21.971874 106.275L21.971874 99.55625Q21.58125 99.91563 20.95625 100.29063Q20.346874 100.65 19.8625 100.82188L19.8625 99.80625Q20.7375 99.38438 21.39375 98.80625Q22.065624 98.2125 22.346874 97.65L23.01875 97.65L23.01875 106.275ZM26.05 104.025L27.159374 103.93125Q27.284374 104.74375 27.721874 105.15Q28.175 105.55625 28.815624 105.55625Q29.565624 105.55625 30.096874 104.97813Q30.628124 104.4 30.628124 103.4625Q30.628124 102.55625 30.1125 102.04063Q29.6125 101.50938 28.784374 101.50938Q28.284374 101.50938 27.8625 101.74375Q27.45625 101.97813 27.221874 102.3375L26.2375 102.2125L27.065624 97.80625L31.346874 97.80625L31.346874 98.80625L27.909374 98.80625L27.45625 101.11875Q28.221874 100.57188 29.065624 100.57188Q30.190624 100.57188 30.95625 101.35313Q31.7375 102.13438 31.7375 103.36875Q31.7375 104.525 31.065624 105.38438Q30.2375 106.41563 28.815624 106.41563Q27.64375 106.41563 26.89375 105.75938Q26.159374 105.10313 26.05 104.025ZM33.05 102.04063Q33.05 100.50938 33.3625 99.5875Q33.675 98.65 34.284374 98.15Q34.909374 97.65 35.846874 97.65Q36.534374 97.65 37.05 97.93125Q37.58125 98.2125 37.925 98.74375Q38.26875 99.25938 38.45625 100.00938Q38.64375 100.75938 38.64375 102.04063Q38.64375 103.55625 38.33125 104.47813Q38.034374 105.4 37.409374 105.91563Q36.8 106.41563 35.846874 106.41563Q34.6125 106.41563 33.89375 105.525Q33.05 104.4625 33.05 102.04063ZM34.128124 102.04063Q34.128124 104.15 34.628124 104.85313Q35.128124 105.55625 35.846874 105.55625Q36.58125 105.55625 37.065624 104.85313Q37.565624 104.15 37.565624 102.04063Q37.565624 99.91563 37.065624 99.22813Q36.58125 98.525 35.83125 98.525Q35.1125 98.525 34.675 99.13438Q34.128124 99.91563 34.128124 102.04063ZM40.6125 106.275L40.6125 105.07188L41.815624 105.07188L41.815624 106.275Q41.815624 106.93125 41.58125 107.3375Q41.346874 107.75938 40.846874 107.97813L40.55 107.525Q40.878124 107.38438 41.034374 107.0875Q41.190624 106.80625 41.221874 106.275L40.6125 106.275ZM43.05 102.04063Q43.05 100.50938 43.3625 99.5875Q43.675 98.65 44.284374 98.15Q44.909374 97.65 45.846874 97.65Q46.534374 97.65 47.05 97.93125Q47.58125 98.2125 47.925 98.74375Q48.26875 99.25938 48.45625 100.00938Q48.64375 100.75938 48.64375 102.04063Q48.64375 103.55625 48.33125 104.47813Q48.034374 105.4 47.409374 105.91563Q46.8 106.41563 45.846874 106.41563Q44.6125 106.41563 43.89375 105.525Q43.05 104.4625 43.05 102.04063ZM44.128124 102.04063Q44.128124 104.15 44.628124 104.85313Q45.128124 105.55625 45.846874 105.55625Q46.58125 105.55625 47.065624 104.85313Q47.565624 104.15 47.565624 102.04063Q47.565624 99.91563 47.065624 99.22813Q46.58125 98.525 45.83125 98.525Q45.1125 98.525 44.675 99.13438Q44.128124 99.91563 44.128124 102.04063ZM50.05 102.04063Q50.05 100.50938 50.3625 99.5875Q50.675 98.65 51.284374 98.15Q51.909374 97.65 52.846874 97.65Q53.534374 97.65 54.05 97.93125Q54.58125 98.2125 54.925 98.74375Q55.26875 99.25938 55.45625 100.00938Q55.64375 100.75938 55.64375 102.04063Q55.64375 103.55625 55.33125 104.47813Q55.034374 105.4 54.409374 105.91563Q53.8 106.41563 52.846874 106.41563Q51.6125 106.41563 50.89375 105.525Q50.05 104.4625 50.05 102.04063ZM51.128124 102.04063Q51.128124 104.15 51.628124 104.85313Q52.128124 105.55625 52.846874 105.55625Q53.58125 105.55625 54.065624 104.85313Q54.565624 104.15 54.565624 102.04063Q54.565624 99.91563 54.065624 99.22813Q53.58125 98.525 52.83125 98.525Q52.1125 98.525 51.675 99.13438Q51.128124 99.91563 51.128124 102.04063ZM57.05 102.04063Q57.05 100.50938 57.3625 99.5875Q57.675 98.65 58.284374 98.15Q58.909374 97.65 59.846874 97.65Q60.534374 97.65 61.05 97.93125Q61.58125 98.2125 61.925 98.74375Q62.26875 99.25938 62.45625 100.00938Q62.64375 100.75938 62.64375 102.04063Q62.64375 103.55625 62.33125 104.47813Q62.034374 105.4 61.409374 105.91563Q60.8 106.41563 59.846874 106.41563Q58.6125 106.41563 57.89375 105.525Q57.05 104.4625 57.05 102.04063ZM58.128124 102.04063Q58.128124 104.15 58.628124 104.85313Q59.128124 105.55625 59.846874 105.55625Q60.58125 105.55625 61.065624 104.85313Q61.565624 104.15 61.565624 102.04063Q61.565624 99.91563 61.065624 99.22813Q60.58125 98.525 59.83125 98.525Q59.1125 98.525 58.675 99.13438Q58.128124 99.91563 58.128124 102.04063Z" fill-rule="nonzero"/><path fill="#000000" d="M24.596874 28.534374L24.596874 29.55L18.909374 29.55Q18.909374 29.175 19.034374 28.815624Q19.253124 28.2375 19.721874 27.675Q20.20625 27.1125 21.1125 26.378124Q22.51875 25.221874 23.003124 24.55Q23.503124 23.878124 23.503124 23.284374Q23.503124 22.659374 23.05 22.2375Q22.596874 21.8 21.878124 21.8Q21.1125 21.8 20.659374 22.253124Q20.20625 22.70625 20.190624 23.51875L19.1125 23.409374Q19.221874 22.190624 19.940624 21.565624Q20.675 20.925 21.909374 20.925Q23.14375 20.925 23.8625 21.6125Q24.58125 22.3 24.58125 23.315624Q24.58125 23.83125 24.3625 24.33125Q24.159374 24.815624 23.659374 25.378124Q23.175 25.925 22.05 26.878124Q21.096874 27.675 20.815624 27.971874Q20.55 28.253124 20.378124 28.534374L24.596874 28.534374ZM26.05 25.315624Q26.05 23.784374 26.3625 22.8625Q26.675 21.925 27.284374 21.425Q27.909374 20.925 28.846874 20.925Q29.534374 20.925 30.05 21.20625Q30.58125 21.4875 30.925 22.01875Q31.26875 22.534374 31.45625 23.284374Q31.64375 24.034374 31.64375 25.315624Q31.64375 26.83125 31.33125 27.753124Q31.034374 28.675 30.409374 29.190624Q29.8 29.690624 28.846874 29.690624Q27.6125 29.690624 26.89375 28.8Q26.05 27.7375 26.05 25.315624ZM27.128124 25.315624Q27.128124 27.425 27.628124 28.128124Q28.128124 28.83125 28.846874 28.83125Q29.58125 28.83125 30.065624 28.128124Q30.565624 27.425 30.565624 25.315624Q30.565624 23.190624 30.065624 22.503124Q29.58125 21.8 28.83125 21.8Q28.1125 21.8 27.675 22.409374Q27.128124 23.190624 27.128124 25.315624ZM33.05 25.315624Q33.05 23.784374 33.3625 22.8625Q33.675 21.925 34.284374 21.425Q34.909374 20.925 35.846874 20.925Q36.534374 20.925 37.05 21.20625Q37.58125 21.4875 37.925 22.01875Q38.26875 22.534374 38.45625 23.284374Q38.64375 24.034374 38.64375 25.315624Q38.64375 26.83125 38.33125 27.753124Q38.034374 28.675 37.409374 29.190624Q36.8 29.690624 35.846874 29.690624Q34.6125 29.690624 33.89375 28.8Q33.05 27.7375 33.05 25.315624ZM34.128124 25.315624Q34.128124 27.425 34.628124 28.128124Q35.128124 28.83125 35.846874 28.83125Q36.58125 28.83125 37.065624 28.128124Q37.565624 27.425 37.565624 25.315624Q37.565624 23.190624 37.065624 22.503124Q36.58125 21.8 35.83125 21.8Q35.1125 21.8 34.675 22.409374Q34.128124 23.190624 34.128124 25.315624ZM40.6125 29.55L40.6125 28.346874L41.815624 28.346874L41.815624 29.55Q41.815624 30.20625 41.58125 30.6125Q41.346874 31.034374 40.846874 31.253124L40.55 30.8Q40.878124 30.659374 41.034374 30.3625Q41.190624 30.08125 41.221874 29.55L40.6125 29.55ZM43.05 25.315624Q43.05 23.784374 43.3625 22.8625Q43.675 21.925 44.284374 21.425Q44.909374 20.925 45.846874 20.925Q46.534374 20.925 47.05 21.20625Q47.58125 21.4875 47.925 22.01875Q48.26875 22.534374 48.45625 23.284374Q48.64375 24.034374 48.64375 25.315624Q48.64375 26.83125 48.33125 27.753124Q48.034374 28.675 47.409374 29.190624Q46.8 29.690624 45.846874 29.690624Q44.6125 29.690624 43.89375 28.8Q43.05 27.7375 43.05 25.315624ZM44.128124 25.315624Q44.128124 27.425 44.628124 28.128124Q45.128124 28.83125 45.846874 28.83125Q46.58125 28.83125 47.065624 28.128124Q47.565624 27.425 47.565624 25.315624Q47.565624 23.190624 47.065624 22.503124Q46.58125 21.8 45.83125 21.8Q45.1125 21.8 44.675 22.409374Q44.128124 23.190624 44.128124 25.315624ZM50.05 25.315624Q50.05 23.784374 50.3625 22.8625Q50.675 21.925 51.284374 21.425Q51.909374 20.925 52.846874 20.925Q53.534374 20.925 54.05 21.20625Q54.58125 21.4875 54.925 22.01875Q55.26875 22.534374 55.45625 23.284374Q55.64375 24.034374 55.64375 25.315624Q55.64375 26.83125 55.33125 27.753124Q55.034374 28.675 54.409374 29.190624Q53.8 29.690624 52.846874 29.690624Q51.6125 29.690624 50.89375 28.8Q50.05 27.7375 50.05 25.315624ZM51.128124 25.315624Q51.128124 27.425 51.628124 28.128124Q52.128124 28.83125 52.846874 28.83125Q53.58125 28.83125 54.065624 28.128124Q54.565624 27.425 54.565624 25.315624Q54.565624 23.190624 54.065624 22.503124Q53.58125 21.8 52.83125 21.8Q52.1125 21.8 51.675 22.409374Q51.128124 23.190624 51.128124 25.315624ZM57.05 25.315624Q57.05 23.784374 57.3625 22.8625Q57.675 21.925 58.284374 21.425Q58.909374 20.925 59.846874 20.925Q60.534374 20.925 61.05 21.20625Q61.58125 21.4875 61.925 22.01875Q62.26875 22.534374 62.45625 23.284374Q62.64375 24.034374 62.64375 25.315624Q62.64375 26.83125 62.33125 27.753124Q62.034374 28.675 61.409374 29.190624Q60.8 29.690624 59.846874 29.690624Q58.6125 29.690624 57.89375 28.8Q57.05 27.7375 57.05 25.315624ZM58.128124 25.315624Q58.128124 27.425 58.628124 28.128124Q59.128124 28.83125 59.846874 28.83125Q60.58125 28.83125 61.065624 28.128124Q61.565624 27.425 61.565624 25.315624Q61.565624 23.190624 61.065624 22.503124Q60.58125 21.8 59.83125 21.8Q59.1125 21.8 58.675 22.409374Q58.128124 23.190624 58.128124 25.315624Z" fill-rule="nonzero"/><path fill="#000000" d="M119.55739 349.45L119.55739 340.85626L122.52614 340.85626Q123.52614 340.85626 124.05739 340.98126Q124.79176 341.15314 125.30739 341.59064Q125.99489 342.16876 126.32301 343.075Q126.66676 343.96564 126.66676 345.10626Q126.66676 346.09064 126.43239 346.84064Q126.21364 347.59064 125.85426 348.09064Q125.49489 348.59064 125.05739 348.8719Q124.63551 349.15314 124.04176 349.3094Q123.44801 349.45 122.66676 349.45L119.55739 349.45ZM120.69801 348.4344L122.52614 348.4344Q123.38551 348.4344 123.86989 348.27814Q124.35426 348.1219 124.63551 347.825Q125.04176 347.4344 125.26051 346.7469Q125.49489 346.0594 125.49489 345.09064Q125.49489 343.7469 125.04176 343.02814Q124.60426 342.29376 123.97926 342.04376Q123.51051 341.8719 122.51051 341.8719L120.69801 341.8719L120.69801 348.4344ZM132.49489 348.6844Q131.90114 349.1844 131.35426 349.3875Q130.82301 349.59064 130.19801 349.59064Q129.16676 349.59064 128.61989 349.09064Q128.07301 348.59064 128.07301 347.8094Q128.07301 347.35626 128.27614 346.98126Q128.47926 346.59064 128.82301 346.3719Q129.16676 346.1375 129.58864 346.02814Q129.88551 345.9344 130.52614 345.85626Q131.79176 345.71564 132.40114 345.4969Q132.40114 345.27814 132.40114 345.23126Q132.40114 344.575 132.10426 344.3094Q131.69801 343.96564 130.90114 343.96564Q130.16676 343.96564 129.80739 344.23126Q129.44801 344.48126 129.27614 345.1375L128.24489 344.9969Q128.38551 344.34064 128.71364 343.9344Q129.04176 343.52814 129.65114 343.3094Q130.26051 343.09064 131.05739 343.09064Q131.85426 343.09064 132.35426 343.27814Q132.85426 343.46564 133.08864 343.7469Q133.32301 344.02814 133.41676 344.46564Q133.46364 344.73126 133.46364 345.4344L133.46364 346.84064Q133.46364 348.3094 133.52614 348.7Q133.60426 349.09064 133.80739 349.45L132.69801 349.45Q132.54176 349.1219 132.49489 348.6844ZM132.40114 346.325Q131.82301 346.5594 130.68239 346.73126Q130.02614 346.825 129.76051 346.95Q129.49489 347.0594 129.33864 347.27814Q129.19801 347.4969 129.19801 347.77814Q129.19801 348.2 129.51051 348.48126Q129.83864 348.7625 130.44801 348.7625Q131.05739 348.7625 131.52614 348.4969Q132.01051 348.23126 132.22926 347.7625Q132.40114 347.40314 132.40114 346.71564L132.40114 346.325ZM135.38551 351.84064L135.26051 350.85626Q135.60426 350.95 135.86989 350.95Q136.21364 350.95 136.41676 350.825Q136.63551 350.71564 136.77614 350.5125Q136.86989 350.34064 137.10426 349.71564Q137.11989 349.6375 137.19801 349.46564L134.82301 343.23126L135.96364 343.23126L137.26051 346.825Q137.51051 347.5125 137.71364 348.27814Q137.90114 347.54376 138.15114 346.85626L139.47926 343.23126L140.52614 343.23126L138.16676 349.5594Q137.77614 350.575 137.57301 350.96564Q137.29176 351.4969 136.91676 351.73126Q136.55739 351.98126 136.05739 351.98126Q135.76051 351.98126 135.38551 351.84064ZM147.10426 349.45L146.05739 349.45L146.05739 342.73126Q145.66676 343.09064 145.04176 343.46564Q144.43239 343.825 143.94801 343.9969L143.94801 342.98126Q144.82301 342.5594 145.47926 341.98126Q146.15114 341.3875 146.43239 340.825L147.10426 340.825L147.10426 349.45Z" fill-rule="nonzero"/><path fill="#000000" d="M215.23964 349.45L215.23964 340.85626L218.20839 340.85626Q219.20839 340.85626 219.73964 340.98126Q220.47401 341.15314 220.98964 341.59064Q221.67714 342.16876 222.00526 343.075Q222.34901 343.96564 222.34901 345.10626Q222.34901 346.09064 222.11464 346.84064Q221.89589 347.59064 221.53651 348.09064Q221.17714 348.59064 220.73964 348.8719Q220.31776 349.15314 219.72401 349.3094Q219.13026 349.45 218.34901 349.45L215.23964 349.45ZM216.38026 348.4344L218.20839 348.4344Q219.06776 348.4344 219.55214 348.27814Q220.03651 348.1219 220.31776 347.825Q220.72401 347.4344 220.94276 346.7469Q221.17714 346.0594 221.17714 345.09064Q221.17714 343.7469 220.72401 343.02814Q220.28651 342.29376 219.66151 342.04376Q219.19276 341.8719 218.19276 341.8719L216.38026 341.8719L216.38026 348.4344ZM228.17714 348.6844Q227.58339 349.1844 227.03651 349.3875Q226.50526 349.59064 225.88026 349.59064Q224.84901 349.59064 224.30214 349.09064Q223.75526 348.59064 223.75526 347.8094Q223.75526 347.35626 223.95839 346.98126Q224.16151 346.59064 224.50526 346.3719Q224.84901 346.1375 225.27089 346.02814Q225.56776 345.9344 226.20839 345.85626Q227.47401 345.71564 228.08339 345.4969Q228.08339 345.27814 228.08339 345.23126Q228.08339 344.575 227.78651 344.3094Q227.38026 343.96564 226.58339 343.96564Q225.84901 343.96564 225.48964 344.23126Q225.13026 344.48126 224.95839 345.1375L223.92714 344.9969Q224.06776 344.34064 224.39589 343.9344Q224.72401 343.52814 225.33339 343.3094Q225.94276 343.09064 226.73964 343.09064Q227.53651 343.09064 228.03651 343.27814Q228.53651 343.46564 228.77089 343.7469Q229.00526 344.02814 229.09901 344.46564Q229.14589 344.73126 229.14589 345.4344L229.14589 346.84064Q229.14589 348.3094 229.20839 348.7Q229.28651 349.09064 229.48964 349.45L228.38026 349.45Q228.22401 349.1219 228.17714 348.6844ZM228.08339 346.325Q227.50526 346.5594 226.36464 346.73126Q225.70839 346.825 225.44276 346.95Q225.17714 347.0594 225.02089 347.27814Q224.88026 347.4969 224.88026 347.77814Q224.88026 348.2 225.19276 348.48126Q225.52089 348.7625 226.13026 348.7625Q226.73964 348.7625 227.20839 348.4969Q227.69276 348.23126 227.91151 347.7625Q228.08339 347.40314 228.08339 346.71564L228.08339 346.325ZM231.06776 351.84064L230.94276 350.85626Q231.28651 350.95 231.55214 350.95Q231.89589 350.95 232.09901 350.825Q232.31776 350.71564 232.45839 350.5125Q232.55214 350.34064 232.78651 349.71564Q232.80214 349.6375 232.88026 349.46564L230.50526 343.23126L231.64589 343.23126L232.94276 346.825Q233.19276 347.5125 233.39589 348.27814Q233.58339 347.54376 233.83339 346.85626L235.16151 343.23126L236.20839 343.23126L233.84901 349.5594Q233.45839 350.575 233.25526 350.96564Q232.97401 351.4969 232.59901 351.73126Q232.23964 351.98126 231.73964 351.98126Q231.44276 351.98126 231.06776 351.84064ZM244.36464 348.4344L244.36464 349.45L238.67714 349.45Q238.67714 349.075 238.80214 348.71564Q239.02089 348.1375 239.48964 347.575Q239.97401 347.0125 240.88026 346.27814Q242.28651 345.1219 242.77089 344.45Q243.27089 343.77814 243.27089 343.1844Q243.27089 342.5594 242.81776 342.1375Q242.36464 341.7 241.64589 341.7Q240.88026 341.7 240.42714 342.15314Q239.97401 342.60626 239.95839 343.41876L238.88026 343.3094Q238.98964 342.09064 239.70839 341.46564Q240.44276 340.825 241.67714 340.825Q242.91151 340.825 243.63026 341.5125Q244.34901 342.2 244.34901 343.21564Q244.34901 343.73126 244.13026 344.23126Q243.92714 344.71564 243.42714 345.27814Q242.94276 345.825 241.81776 346.77814Q240.86464 347.575 240.58339 347.8719Q240.31776 348.15314 240.14589 348.4344L244.36464 348.4344Z" fill-rule="nonzero"/><path fill="#000000" d="M310.92188 349.45L310.92188 340.85626L313.89062 340.85626Q314.89062 340.85626 315.42188 340.98126Q316.15625 341.15314 316.67188 341.59064Q317.35938 342.16876 317.6875 343.075Q318.03125 343.96564 318.03125 345.10626Q318.03125 346.09064 317.79688 346.84064Q317.57812 347.59064 317.21875 348.09064Q316.85938 348.59064 316.42188 348.8719Q316.0 349.15314 315.40625 349.3094Q314.8125 349.45 314.03125 349.45L310.92188 349.45ZM312.0625 348.4344L313.89062 348.4344Q314.75 348.4344 315.23438 348.27814Q315.71875 348.1219 316.0 347.825Q316.40625 347.4344 316.625 346.7469Q316.85938 346.0594 316.85938 345.09064Q316.85938 343.7469 316.40625 343.02814Q315.96875 342.29376 315.34375 342.04376Q314.875 341.8719 313.875 341.8719L312.0625 341.8719L312.0625 348.4344ZM323.85938 348.6844Q323.26562 349.1844 322.71875 349.3875Q322.1875 349.59064 321.5625 349.59064Q320.53125 349.59064 319.98438 349.09064Q319.4375 348.59064 319.4375 347.8094Q319.4375 347.35626 319.64062 346.98126Q319.84375 346.59064 320.1875 346.3719Q320.53125 346.1375 320.95312 346.02814Q321.25 345.9344 321.89062 345.85626Q323.15625 345.71564 323.76562 345.4969Q323.76562 345.27814 323.76562 345.23126Q323.76562 344.575 323.46875 344.3094Q323.0625 343.96564 322.26562 343.96564Q321.53125 343.96564 321.17188 344.23126Q320.8125 344.48126 320.64062 345.1375L319.60938 344.9969Q319.75 344.34064 320.07812 343.9344Q320.40625 343.52814 321.01562 343.3094Q321.625 343.09064 322.42188 343.09064Q323.21875 343.09064 323.71875 343.27814Q324.21875 343.46564 324.45312 343.7469Q324.6875 344.02814 324.78125 344.46564Q324.82812 344.73126 324.82812 345.4344L324.82812 346.84064Q324.82812 348.3094 324.89062 348.7Q324.96875 349.09064 325.17188 349.45L324.0625 349.45Q323.90625 349.1219 323.85938 348.6844ZM323.76562 346.325Q323.1875 346.5594 322.04688 346.73126Q321.39062 346.825 321.125 346.95Q320.85938 347.0594 320.70312 347.27814Q320.5625 347.4969 320.5625 347.77814Q320.5625 348.2 320.875 348.48126Q321.20312 348.7625 321.8125 348.7625Q322.42188 348.7625 322.89062 348.4969Q323.375 348.23126 323.59375 347.7625Q323.76562 347.40314 323.76562 346.71564L323.76562 346.325ZM326.75 351.84064L326.625 350.85626Q326.96875 350.95 327.23438 350.95Q327.57812 350.95 327.78125 350.825Q328.0 350.71564 328.14062 350.5125Q328.23438 350.34064 328.46875 349.71564Q328.48438 349.6375 328.5625 349.46564L326.1875 343.23126L327.32812 343.23126L328.625 346.825Q328.875 347.5125 329.07812 348.27814Q329.26562 347.54376 329.51562 346.85626L330.84375 343.23126L331.89062 343.23126L329.53125 349.5594Q329.14062 350.575 328.9375 350.96564Q328.65625 351.4969 328.28125 351.73126Q327.92188 351.98126 327.42188 351.98126Q327.125 351.98126 326.75 351.84064ZM334.5 347.1844L335.5625 347.04376Q335.73438 347.9344 336.17188 348.34064Q336.60938 348.73126 337.23438 348.73126Q337.98438 348.73126 338.5 348.21564Q339.01562 347.7 339.01562 346.9344Q339.01562 346.21564 338.53125 345.7469Q338.0625 345.2625 337.32812 345.2625Q337.03125 345.2625 336.57812 345.3875L336.70312 344.45Q336.8125 344.46564 336.875 344.46564Q337.54688 344.46564 338.07812 344.1219Q338.625 343.7625 338.625 343.02814Q338.625 342.45 338.23438 342.075Q337.84375 341.6844 337.21875 341.6844Q336.60938 341.6844 336.1875 342.075Q335.78125 342.46564 335.67188 343.23126L334.60938 343.04376Q334.79688 341.9969 335.48438 341.41876Q336.17188 340.825 337.1875 340.825Q337.89062 340.825 338.48438 341.1375Q339.07812 341.4344 339.39062 341.95Q339.70312 342.46564 339.70312 343.0594Q339.70312 343.60626 339.40625 344.075Q339.10938 344.52814 338.53125 344.79376Q339.28125 344.96564 339.70312 345.52814Q340.125 346.075 340.125 346.91876Q340.125 348.04376 339.29688 348.825Q338.48438 349.60626 337.23438 349.60626Q336.10938 349.60626 335.35938 348.9344Q334.60938 348.2469 334.5 347.1844Z" fill-rule="nonzero"/><path fill="#000000" d="M406.60413 349.45L406.60413 340.85626L409.57288 340.85626Q410.57288 340.85626 411.10413 340.98126Q411.8385 341.15314 412.35413 341.59064Q413.04163 342.16876 413.36975 343.075Q413.7135 343.96564 413.7135 345.10626Q413.7135 346.09064 413.47913 346.84064Q413.26038 347.59064 412.901 348.09064Q412.54163 348.59064 412.10413 348.8719Q411.68225 349.15314 411.0885 349.3094Q410.49475 349.45 409.7135 349.45L406.60413 349.45ZM407.74475 348.4344L409.57288 348.4344Q410.43225 348.4344 410.91663 348.27814Q411.401 348.1219 411.68225 347.825Q412.0885 347.4344 412.30725 346.7469Q412.54163 346.0594 412.54163 345.09064Q412.54163 343.7469 412.0885 343.02814Q411.651 342.29376 411.026 342.04376Q410.55725 341.8719 409.55725 341.8719L407.74475 341.8719L407.74475 348.4344ZM419.54163 348.6844Q418.94788 349.1844 418.401 349.3875Q417.86975 349.59064 417.24475 349.59064Q416.2135 349.59064 415.66663 349.09064Q415.11975 348.59064 415.11975 347.8094Q415.11975 347.35626 415.32288 346.98126Q415.526 346.59064 415.86975 346.3719Q416.2135 346.1375 416.63538 346.02814Q416.93225 345.9344 417.57288 345.85626Q418.8385 345.71564 419.44788 345.4969Q419.44788 345.27814 419.44788 345.23126Q419.44788 344.575 419.151 344.3094Q418.74475 343.96564 417.94788 343.96564Q417.2135 343.96564 416.85413 344.23126Q416.49475 344.48126 416.32288 345.1375L415.29163 344.9969Q415.43225 344.34064 415.76038 343.9344Q416.0885 343.52814 416.69788 343.3094Q417.30725 343.09064 418.10413 343.09064Q418.901 343.09064 419.401 343.27814Q419.901 343.46564 420.13538 343.7469Q420.36975 344.02814 420.4635 344.46564Q420.51038 344.73126 420.51038 345.4344L420.51038 346.84064Q420.51038 348.3094 420.57288 348.7Q420.651 349.09064 420.85413 349.45L419.74475 349.45Q419.5885 349.1219 419.54163 348.6844ZM419.44788 346.325Q418.86975 346.5594 417.72913 346.73126Q417.07288 346.825 416.80725 346.95Q416.54163 347.0594 416.38538 347.27814Q416.24475 347.4969 416.24475 347.77814Q416.24475 348.2 416.55725 348.48126Q416.88538 348.7625 417.49475 348.7625Q418.10413 348.7625 418.57288 348.4969Q419.05725 348.23126 419.276 347.7625Q419.44788 347.40314 419.44788 346.71564L419.44788 346.325ZM422.43225 351.84064L422.30725 350.85626Q422.651 350.95 422.91663 350.95Q423.26038 350.95 423.4635 350.825Q423.68225 350.71564 423.82288 350.5125Q423.91663 350.34064 424.151 349.71564Q424.16663 349.6375 424.24475 349.46564L421.86975 343.23126L423.01038 343.23126L424.30725 346.825Q424.55725 347.5125 424.76038 348.27814Q424.94788 347.54376 425.19788 346.85626L426.526 343.23126L427.57288 343.23126L425.2135 349.5594Q424.82288 350.575 424.61975 350.96564Q424.3385 351.4969 423.9635 351.73126Q423.60413 351.98126 423.10413 351.98126Q422.80725 351.98126 422.43225 351.84064ZM433.55725 349.45L433.55725 347.3875L429.8385 347.3875L429.8385 346.41876L433.76038 340.85626L434.61975 340.85626L434.61975 346.41876L435.776 346.41876L435.776 347.3875L434.61975 347.3875L434.61975 349.45L433.55725 349.45ZM433.55725 346.41876L433.55725 342.5594L430.86975 346.41876L433.55725 346.41876Z" fill-rule="nonzero"/><path fill="#000000" d="M502.28635 349.45L502.28635 340.85626L505.2551 340.85626Q506.2551 340.85626 506.78635 340.98126Q507.52072 341.15314 508.03635 341.59064Q508.72385 342.16876 509.05197 343.075Q509.39572 343.96564 509.39572 345.10626Q509.39572 346.09064 509.16135 346.84064Q508.9426 347.59064 508.58322 348.09064Q508.22385 348.59064 507.78635 348.8719Q507.36447 349.15314 506.77072 349.3094Q506.17697 349.45 505.39572 349.45L502.28635 349.45ZM503.42697 348.4344L505.2551 348.4344Q506.11447 348.4344 506.59885 348.27814Q507.08322 348.1219 507.36447 347.825Q507.77072 347.4344 507.98947 346.7469Q508.22385 346.0594 508.22385 345.09064Q508.22385 343.7469 507.77072 343.02814Q507.33322 342.29376 506.70822 342.04376Q506.23947 341.8719 505.23947 341.8719L503.42697 341.8719L503.42697 348.4344ZM515.2239 348.6844Q514.6301 349.1844 514.08325 349.3875Q513.552 349.59064 512.927 349.59064Q511.89572 349.59064 511.34885 349.09064Q510.80197 348.59064 510.80197 347.8094Q510.80197 347.35626 511.0051 346.98126Q511.20822 346.59064 511.55197 346.3719Q511.89572 346.1375 512.3176 346.02814Q512.6145 345.9344 513.2551 345.85626Q514.52075 345.71564 515.1301 345.4969Q515.1301 345.27814 515.1301 345.23126Q515.1301 344.575 514.83325 344.3094Q514.427 343.96564 513.6301 343.96564Q512.89575 343.96564 512.5364 344.23126Q512.177 344.48126 512.0051 345.1375L510.97385 344.9969Q511.11447 344.34064 511.4426 343.9344Q511.77072 343.52814 512.3801 343.3094Q512.9895 343.09064 513.7864 343.09064Q514.58325 343.09064 515.08325 343.27814Q515.58325 343.46564 515.8176 343.7469Q516.052 344.02814 516.14575 344.46564Q516.1926 344.73126 516.1926 345.4344L516.1926 346.84064Q516.1926 348.3094 516.2551 348.7Q516.33325 349.09064 516.5364 349.45L515.427 349.45Q515.27075 349.1219 515.2239 348.6844ZM515.1301 346.325Q514.552 346.5594 513.4114 346.73126Q512.7551 346.825 512.4895 346.95Q512.2239 347.0594 512.0676 347.27814Q511.92697 347.4969 511.92697 347.77814Q511.92697 348.2 512.2395 348.48126Q512.5676 348.7625 513.177 348.7625Q513.7864 348.7625 514.2551 348.4969Q514.7395 348.23126 514.95825 347.7625Q515.1301 347.40314 515.1301 346.71564L515.1301 346.325ZM518.1145 351.84064L517.9895 350.85626Q518.33325 350.95 518.5989 350.95Q518.9426 350.95 519.14575 350.825Q519.3645 350.71564 519.5051 350.5125Q519.5989 350.34064 519.83325 349.71564Q519.8489 349.6375 519.927 349.46564L517.552 343.23126L518.6926 343.23126L519.9895 346.825Q520.2395 347.5125 520.4426 348.27814Q520.6301 347.54376 520.8801 346.85626L522.20825 343.23126L523.2551 343.23126L520.89575 349.5594Q520.5051 350.575 520.302 350.96564Q520.02075 351.4969 519.64575 351.73126Q519.2864 351.98126 518.7864 351.98126Q518.4895 351.98126 518.1145 351.84064ZM525.8645 347.2L526.9739 347.10626Q527.0989 347.91876 527.5364 348.325Q527.9895 348.73126 528.6301 348.73126Q529.3801 348.73126 529.9114 348.15314Q530.4426 347.575 530.4426 346.6375Q530.4426 345.73126 529.927 345.21564Q529.427 344.6844 528.5989 344.6844Q528.0989 344.6844 527.677 344.91876Q527.27075 345.15314 527.0364 345.5125L526.052 345.3875L526.8801 340.98126L531.1614 340.98126L531.1614 341.98126L527.7239 341.98126L527.27075 344.29376Q528.0364 343.7469 528.8801 343.7469Q530.0051 343.7469 530.77075 344.52814Q531.552 345.3094 531.552 346.54376Q531.552 347.7 530.8801 348.5594Q530.052 349.59064 528.6301 349.59064Q527.45825 349.59064 526.70825 348.9344Q525.9739 348.27814 525.8645 347.2Z" fill-rule="nonzero"/></svg>